# xmcd CD database file
#
# Track frame offsets:
#	150
#	36257
#	58807
#	81765
#	103067
#	121622
#	142840
#	162890
#	183350
#	202707
#	225795
#	267660
#	284437
#	326465
#
# Disc length: 4565 seconds
#
# Revision: 0
# Processed by: cddbd v1.5.1PL0 Copyright (c) Steve Scherf et al.
# Submitted via: CDex 1.51
#
DISCID=b611d30e
DTITLE=Varios - Las Bailaditas del 95
DYEAR=1995
DGENRE=Salsa
TTITLE0=C+C Music Factory-Robbi Rob's Boriqua anthem
TTITLE1=Banda Blanca-Swing latino
TTITLE2=Victor Manuelle-Apiádate de mí
TTITLE3=Fiesta Band-Cachete, pechito y ombligo
TTITLE4=Macolla-Bailarlo contigo
TTITLE5=India-Dicen que soy
TTITLE6=Freddy Roland y Orq-Piel morena
TTITLE7=Miki González-El mar
TTITLE8=Fiesta Band-El chico del dpto 512 y Dime si me quieres
TTITLE9=Marc Anthony-Te conozco bien
TTITLE10=Fiesta Band-Mix Vallenatos
TTITLE11=Laura León-La reina del baile
TTITLE12=Charito Alonso-Charito mix
TTITLE13=Eva Ayllon-Festejos
EXTD=YEAR: 1995
EXTT0=
EXTT1=
EXTT2=
EXTT3=
EXTT4=
EXTT5=
EXTT6=
EXTT7=
EXTT8=
EXTT9=
EXTT10=
EXTT11=
EXTT12=
EXTT13=
PLAYORDER=
